<mxfile host="app.diagrams.net" agent="Mozilla/5.0 (Windows NT 10.0; Win64; x64) AppleWebKit/537.36 (KHTML, like Gecko) Chrome/129.0.0.0 Safari/537.36" version="24.7.17">
  <diagram name="Page-1" id="gNDuVZlX7ZFVQx9bvZzL">
    <mxGraphModel dx="921" dy="398" grid="1" gridSize="10" guides="1" tooltips="1" connect="1" arrows="1" fold="1" page="1" pageScale="1" pageWidth="850" pageHeight="1100" math="0" shadow="0">
      <root>
        <mxCell id="0" />
        <mxCell id="1" parent="0" />
        <mxCell id="etK-Mo9oTX_UjSKc1ZKT-1" value="&lt;font style=&quot;font-size: 14px;&quot;&gt;Admin&lt;/font&gt;" style="rounded=0;whiteSpace=wrap;html=1;" vertex="1" parent="1">
          <mxGeometry x="80" y="80" width="120" height="40" as="geometry" />
        </mxCell>
        <mxCell id="etK-Mo9oTX_UjSKc1ZKT-6" value="" style="group" vertex="1" connectable="0" parent="1">
          <mxGeometry x="340" y="70" width="110" height="80" as="geometry" />
        </mxCell>
        <mxCell id="etK-Mo9oTX_UjSKc1ZKT-2" value="" style="ellipse;whiteSpace=wrap;html=1;" vertex="1" parent="etK-Mo9oTX_UjSKc1ZKT-6">
          <mxGeometry width="110" height="80" as="geometry" />
        </mxCell>
        <mxCell id="etK-Mo9oTX_UjSKc1ZKT-3" value="" style="endArrow=none;html=1;rounded=0;exitX=0;exitY=0.5;exitDx=0;exitDy=0;entryX=1;entryY=0.5;entryDx=0;entryDy=0;" edge="1" parent="etK-Mo9oTX_UjSKc1ZKT-6" source="etK-Mo9oTX_UjSKc1ZKT-2" target="etK-Mo9oTX_UjSKc1ZKT-2">
          <mxGeometry width="50" height="50" relative="1" as="geometry">
            <mxPoint x="80" y="200" as="sourcePoint" />
            <mxPoint x="130" y="150" as="targetPoint" />
          </mxGeometry>
        </mxCell>
        <mxCell id="etK-Mo9oTX_UjSKc1ZKT-7" value="5.0" style="text;html=1;align=center;verticalAlign=middle;resizable=0;points=[];autosize=1;strokeColor=none;fillColor=none;" vertex="1" parent="etK-Mo9oTX_UjSKc1ZKT-6">
          <mxGeometry x="35" y="10" width="40" height="30" as="geometry" />
        </mxCell>
        <mxCell id="etK-Mo9oTX_UjSKc1ZKT-8" value="Login" style="text;html=1;align=center;verticalAlign=middle;resizable=0;points=[];autosize=1;strokeColor=none;fillColor=none;" vertex="1" parent="etK-Mo9oTX_UjSKc1ZKT-6">
          <mxGeometry x="30" y="40" width="50" height="30" as="geometry" />
        </mxCell>
        <mxCell id="etK-Mo9oTX_UjSKc1ZKT-9" value="" style="group" vertex="1" connectable="0" parent="1">
          <mxGeometry x="340" y="189" width="110" height="80" as="geometry" />
        </mxCell>
        <mxCell id="etK-Mo9oTX_UjSKc1ZKT-10" value="" style="ellipse;whiteSpace=wrap;html=1;" vertex="1" parent="etK-Mo9oTX_UjSKc1ZKT-9">
          <mxGeometry width="110" height="80" as="geometry" />
        </mxCell>
        <mxCell id="etK-Mo9oTX_UjSKc1ZKT-11" value="" style="endArrow=none;html=1;rounded=0;exitX=0;exitY=0.5;exitDx=0;exitDy=0;entryX=1;entryY=0.5;entryDx=0;entryDy=0;" edge="1" parent="etK-Mo9oTX_UjSKc1ZKT-9" source="etK-Mo9oTX_UjSKc1ZKT-10" target="etK-Mo9oTX_UjSKc1ZKT-10">
          <mxGeometry width="50" height="50" relative="1" as="geometry">
            <mxPoint x="80" y="200" as="sourcePoint" />
            <mxPoint x="130" y="150" as="targetPoint" />
          </mxGeometry>
        </mxCell>
        <mxCell id="etK-Mo9oTX_UjSKc1ZKT-12" value="5.1" style="text;html=1;align=center;verticalAlign=middle;resizable=0;points=[];autosize=1;strokeColor=none;fillColor=none;" vertex="1" parent="etK-Mo9oTX_UjSKc1ZKT-9">
          <mxGeometry x="35" y="10" width="40" height="30" as="geometry" />
        </mxCell>
        <mxCell id="etK-Mo9oTX_UjSKc1ZKT-13" value="Add business&amp;nbsp;&lt;div&gt;data&lt;/div&gt;" style="text;html=1;align=center;verticalAlign=middle;resizable=0;points=[];autosize=1;strokeColor=none;fillColor=none;" vertex="1" parent="etK-Mo9oTX_UjSKc1ZKT-9">
          <mxGeometry x="5" y="40" width="100" height="40" as="geometry" />
        </mxCell>
        <mxCell id="etK-Mo9oTX_UjSKc1ZKT-14" value="" style="group" vertex="1" connectable="0" parent="1">
          <mxGeometry x="340" y="310" width="110" height="80" as="geometry" />
        </mxCell>
        <mxCell id="etK-Mo9oTX_UjSKc1ZKT-15" value="" style="ellipse;whiteSpace=wrap;html=1;" vertex="1" parent="etK-Mo9oTX_UjSKc1ZKT-14">
          <mxGeometry y="1" width="110" height="80" as="geometry" />
        </mxCell>
        <mxCell id="etK-Mo9oTX_UjSKc1ZKT-16" value="" style="endArrow=none;html=1;rounded=0;exitX=0;exitY=0.5;exitDx=0;exitDy=0;entryX=1;entryY=0.5;entryDx=0;entryDy=0;" edge="1" parent="etK-Mo9oTX_UjSKc1ZKT-14" source="etK-Mo9oTX_UjSKc1ZKT-15" target="etK-Mo9oTX_UjSKc1ZKT-15">
          <mxGeometry width="50" height="50" relative="1" as="geometry">
            <mxPoint x="80" y="200" as="sourcePoint" />
            <mxPoint x="130" y="150" as="targetPoint" />
          </mxGeometry>
        </mxCell>
        <mxCell id="etK-Mo9oTX_UjSKc1ZKT-17" value="5.2" style="text;html=1;align=center;verticalAlign=middle;resizable=0;points=[];autosize=1;strokeColor=none;fillColor=none;" vertex="1" parent="etK-Mo9oTX_UjSKc1ZKT-14">
          <mxGeometry x="35" y="10" width="40" height="30" as="geometry" />
        </mxCell>
        <mxCell id="etK-Mo9oTX_UjSKc1ZKT-18" value="Edit business&lt;div&gt;data&lt;/div&gt;" style="text;html=1;align=center;verticalAlign=middle;resizable=0;points=[];autosize=1;strokeColor=none;fillColor=none;" vertex="1" parent="etK-Mo9oTX_UjSKc1ZKT-14">
          <mxGeometry x="10" y="39" width="90" height="40" as="geometry" />
        </mxCell>
        <mxCell id="etK-Mo9oTX_UjSKc1ZKT-29" value="" style="group" vertex="1" connectable="0" parent="1">
          <mxGeometry x="570" y="80" width="110" height="40" as="geometry" />
        </mxCell>
        <mxCell id="etK-Mo9oTX_UjSKc1ZKT-30" value="" style="endArrow=none;html=1;rounded=0;" edge="1" parent="etK-Mo9oTX_UjSKc1ZKT-29">
          <mxGeometry width="50" height="50" relative="1" as="geometry">
            <mxPoint as="sourcePoint" />
            <mxPoint x="110" as="targetPoint" />
          </mxGeometry>
        </mxCell>
        <mxCell id="etK-Mo9oTX_UjSKc1ZKT-31" value="" style="endArrow=none;html=1;rounded=0;" edge="1" parent="etK-Mo9oTX_UjSKc1ZKT-29">
          <mxGeometry width="50" height="50" relative="1" as="geometry">
            <mxPoint y="40" as="sourcePoint" />
            <mxPoint x="110" y="40" as="targetPoint" />
          </mxGeometry>
        </mxCell>
        <mxCell id="etK-Mo9oTX_UjSKc1ZKT-32" value="&lt;font style=&quot;font-size: 14px;&quot;&gt;Admin&lt;/font&gt;" style="text;html=1;align=center;verticalAlign=middle;resizable=0;points=[];autosize=1;strokeColor=none;fillColor=none;" vertex="1" parent="etK-Mo9oTX_UjSKc1ZKT-29">
          <mxGeometry x="24" y="5" width="60" height="30" as="geometry" />
        </mxCell>
        <mxCell id="etK-Mo9oTX_UjSKc1ZKT-33" value="" style="group" vertex="1" connectable="0" parent="1">
          <mxGeometry x="570" y="200" width="110" height="40" as="geometry" />
        </mxCell>
        <mxCell id="etK-Mo9oTX_UjSKc1ZKT-34" value="" style="endArrow=none;html=1;rounded=0;" edge="1" parent="etK-Mo9oTX_UjSKc1ZKT-33">
          <mxGeometry width="50" height="50" relative="1" as="geometry">
            <mxPoint as="sourcePoint" />
            <mxPoint x="110" as="targetPoint" />
          </mxGeometry>
        </mxCell>
        <mxCell id="etK-Mo9oTX_UjSKc1ZKT-35" value="" style="endArrow=none;html=1;rounded=0;" edge="1" parent="etK-Mo9oTX_UjSKc1ZKT-33">
          <mxGeometry width="50" height="50" relative="1" as="geometry">
            <mxPoint y="40" as="sourcePoint" />
            <mxPoint x="110" y="40" as="targetPoint" />
          </mxGeometry>
        </mxCell>
        <mxCell id="etK-Mo9oTX_UjSKc1ZKT-36" value="&lt;font style=&quot;font-size: 14px;&quot;&gt;business data&lt;/font&gt;" style="text;html=1;align=center;verticalAlign=middle;resizable=0;points=[];autosize=1;strokeColor=none;fillColor=none;" vertex="1" parent="etK-Mo9oTX_UjSKc1ZKT-33">
          <mxGeometry x="-1" y="5" width="110" height="30" as="geometry" />
        </mxCell>
        <mxCell id="etK-Mo9oTX_UjSKc1ZKT-37" value="" style="endArrow=classic;html=1;rounded=0;exitX=1;exitY=0.25;exitDx=0;exitDy=0;entryX=0.066;entryY=0.255;entryDx=0;entryDy=0;entryPerimeter=0;" edge="1" parent="1" source="etK-Mo9oTX_UjSKc1ZKT-1" target="etK-Mo9oTX_UjSKc1ZKT-2">
          <mxGeometry width="50" height="50" relative="1" as="geometry">
            <mxPoint x="440" y="230" as="sourcePoint" />
            <mxPoint x="490" y="180" as="targetPoint" />
          </mxGeometry>
        </mxCell>
        <mxCell id="etK-Mo9oTX_UjSKc1ZKT-38" value="" style="endArrow=classic;html=1;rounded=0;entryX=1;entryY=0.75;entryDx=0;entryDy=0;exitX=0.004;exitY=0.526;exitDx=0;exitDy=0;exitPerimeter=0;" edge="1" parent="1" source="etK-Mo9oTX_UjSKc1ZKT-2" target="etK-Mo9oTX_UjSKc1ZKT-1">
          <mxGeometry width="50" height="50" relative="1" as="geometry">
            <mxPoint x="300" y="150" as="sourcePoint" />
            <mxPoint x="350" y="100" as="targetPoint" />
          </mxGeometry>
        </mxCell>
        <mxCell id="etK-Mo9oTX_UjSKc1ZKT-39" value="Request to login" style="text;html=1;align=center;verticalAlign=middle;resizable=0;points=[];autosize=1;strokeColor=none;fillColor=none;" vertex="1" parent="1">
          <mxGeometry x="225" y="68" width="110" height="30" as="geometry" />
        </mxCell>
        <mxCell id="etK-Mo9oTX_UjSKc1ZKT-40" value="Response" style="text;html=1;align=center;verticalAlign=middle;resizable=0;points=[];autosize=1;strokeColor=none;fillColor=none;" vertex="1" parent="1">
          <mxGeometry x="240" y="101" width="80" height="30" as="geometry" />
        </mxCell>
        <mxCell id="etK-Mo9oTX_UjSKc1ZKT-41" value="" style="endArrow=classic;html=1;rounded=0;exitX=0.75;exitY=1;exitDx=0;exitDy=0;entryX=0.025;entryY=0.373;entryDx=0;entryDy=0;entryPerimeter=0;" edge="1" parent="1" source="etK-Mo9oTX_UjSKc1ZKT-1" target="etK-Mo9oTX_UjSKc1ZKT-10">
          <mxGeometry width="50" height="50" relative="1" as="geometry">
            <mxPoint x="350" y="290" as="sourcePoint" />
            <mxPoint x="400" y="240" as="targetPoint" />
            <Array as="points">
              <mxPoint x="170" y="220" />
            </Array>
          </mxGeometry>
        </mxCell>
        <mxCell id="etK-Mo9oTX_UjSKc1ZKT-42" value="Add business&amp;nbsp;&lt;div&gt;data&lt;/div&gt;" style="text;html=1;align=center;verticalAlign=middle;resizable=0;points=[];autosize=1;strokeColor=none;fillColor=none;" vertex="1" parent="1">
          <mxGeometry x="197" y="199" width="100" height="40" as="geometry" />
        </mxCell>
        <mxCell id="etK-Mo9oTX_UjSKc1ZKT-44" value="" style="endArrow=classic;html=1;rounded=0;entryX=0.572;entryY=1.05;entryDx=0;entryDy=0;entryPerimeter=0;exitX=0.018;exitY=0.535;exitDx=0;exitDy=0;exitPerimeter=0;" edge="1" parent="1" source="etK-Mo9oTX_UjSKc1ZKT-13" target="etK-Mo9oTX_UjSKc1ZKT-1">
          <mxGeometry width="50" height="50" relative="1" as="geometry">
            <mxPoint x="310" y="250" as="sourcePoint" />
            <mxPoint x="360" y="200" as="targetPoint" />
            <Array as="points">
              <mxPoint x="150" y="249" />
            </Array>
          </mxGeometry>
        </mxCell>
        <mxCell id="etK-Mo9oTX_UjSKc1ZKT-45" value="Reponse" style="text;html=1;align=center;verticalAlign=middle;resizable=0;points=[];autosize=1;strokeColor=none;fillColor=none;" vertex="1" parent="1">
          <mxGeometry x="215" y="241" width="70" height="30" as="geometry" />
        </mxCell>
        <mxCell id="etK-Mo9oTX_UjSKc1ZKT-46" value="" style="endArrow=classic;html=1;rounded=0;exitX=0.325;exitY=1.06;exitDx=0;exitDy=0;exitPerimeter=0;" edge="1" parent="1" source="etK-Mo9oTX_UjSKc1ZKT-1">
          <mxGeometry width="50" height="50" relative="1" as="geometry">
            <mxPoint x="190" y="290" as="sourcePoint" />
            <mxPoint x="340" y="340" as="targetPoint" />
            <Array as="points">
              <mxPoint x="120" y="340" />
            </Array>
          </mxGeometry>
        </mxCell>
        <mxCell id="etK-Mo9oTX_UjSKc1ZKT-47" value="Update business&lt;div&gt;data&lt;/div&gt;" style="text;html=1;align=center;verticalAlign=middle;resizable=0;points=[];autosize=1;strokeColor=none;fillColor=none;" vertex="1" parent="1">
          <mxGeometry x="147" y="320" width="110" height="40" as="geometry" />
        </mxCell>
        <mxCell id="etK-Mo9oTX_UjSKc1ZKT-48" value="" style="endArrow=classic;html=1;rounded=0;exitX=0.06;exitY=0.711;exitDx=0;exitDy=0;exitPerimeter=0;entryX=0.108;entryY=1.083;entryDx=0;entryDy=0;entryPerimeter=0;" edge="1" parent="1" source="etK-Mo9oTX_UjSKc1ZKT-15" target="etK-Mo9oTX_UjSKc1ZKT-1">
          <mxGeometry width="50" height="50" relative="1" as="geometry">
            <mxPoint x="340" y="320" as="sourcePoint" />
            <mxPoint x="390" y="270" as="targetPoint" />
            <Array as="points">
              <mxPoint x="93" y="368" />
            </Array>
          </mxGeometry>
        </mxCell>
        <mxCell id="etK-Mo9oTX_UjSKc1ZKT-49" value="Response" style="text;html=1;align=center;verticalAlign=middle;resizable=0;points=[];autosize=1;strokeColor=none;fillColor=none;" vertex="1" parent="1">
          <mxGeometry x="140" y="364" width="80" height="30" as="geometry" />
        </mxCell>
        <mxCell id="etK-Mo9oTX_UjSKc1ZKT-54" value="" style="group" vertex="1" connectable="0" parent="1">
          <mxGeometry x="450" y="68" width="110" height="65" as="geometry" />
        </mxCell>
        <mxCell id="etK-Mo9oTX_UjSKc1ZKT-50" value="" style="endArrow=classic;html=1;rounded=0;" edge="1" parent="etK-Mo9oTX_UjSKc1ZKT-54">
          <mxGeometry width="50" height="50" relative="1" as="geometry">
            <mxPoint y="22" as="sourcePoint" />
            <mxPoint x="110" y="22" as="targetPoint" />
          </mxGeometry>
        </mxCell>
        <mxCell id="etK-Mo9oTX_UjSKc1ZKT-51" value="" style="endArrow=classic;html=1;rounded=0;entryX=1;entryY=0.5;entryDx=0;entryDy=0;" edge="1" parent="etK-Mo9oTX_UjSKc1ZKT-54" target="etK-Mo9oTX_UjSKc1ZKT-2">
          <mxGeometry width="50" height="50" relative="1" as="geometry">
            <mxPoint x="110" y="42" as="sourcePoint" />
            <mxPoint x="100" y="72" as="targetPoint" />
          </mxGeometry>
        </mxCell>
        <mxCell id="etK-Mo9oTX_UjSKc1ZKT-52" value="check for login" style="text;html=1;align=center;verticalAlign=middle;resizable=0;points=[];autosize=1;strokeColor=none;fillColor=none;" vertex="1" parent="etK-Mo9oTX_UjSKc1ZKT-54">
          <mxGeometry width="100" height="30" as="geometry" />
        </mxCell>
        <mxCell id="etK-Mo9oTX_UjSKc1ZKT-53" value="Reply" style="text;html=1;align=center;verticalAlign=middle;resizable=0;points=[];autosize=1;strokeColor=none;fillColor=none;" vertex="1" parent="etK-Mo9oTX_UjSKc1ZKT-54">
          <mxGeometry x="29" y="35" width="50" height="30" as="geometry" />
        </mxCell>
        <mxCell id="etK-Mo9oTX_UjSKc1ZKT-56" value="" style="endArrow=classic;html=1;rounded=0;" edge="1" parent="1">
          <mxGeometry width="50" height="50" relative="1" as="geometry">
            <mxPoint x="450" y="211" as="sourcePoint" />
            <mxPoint x="560" y="211" as="targetPoint" />
          </mxGeometry>
        </mxCell>
        <mxCell id="etK-Mo9oTX_UjSKc1ZKT-57" value="" style="endArrow=classic;html=1;rounded=0;entryX=1;entryY=0.5;entryDx=0;entryDy=0;" edge="1" parent="1" target="etK-Mo9oTX_UjSKc1ZKT-10">
          <mxGeometry width="50" height="50" relative="1" as="geometry">
            <mxPoint x="560" y="231" as="sourcePoint" />
            <mxPoint x="550" y="261" as="targetPoint" />
          </mxGeometry>
        </mxCell>
        <mxCell id="etK-Mo9oTX_UjSKc1ZKT-58" value="insert data" style="text;html=1;align=center;verticalAlign=middle;resizable=0;points=[];autosize=1;strokeColor=none;fillColor=none;" vertex="1" parent="1">
          <mxGeometry x="460" y="189" width="80" height="30" as="geometry" />
        </mxCell>
        <mxCell id="etK-Mo9oTX_UjSKc1ZKT-59" value="Reply" style="text;html=1;align=center;verticalAlign=middle;resizable=0;points=[];autosize=1;strokeColor=none;fillColor=none;" vertex="1" parent="1">
          <mxGeometry x="479" y="224" width="50" height="30" as="geometry" />
        </mxCell>
        <mxCell id="etK-Mo9oTX_UjSKc1ZKT-60" value="" style="endArrow=classic;html=1;rounded=0;" edge="1" parent="1">
          <mxGeometry width="50" height="50" relative="1" as="geometry">
            <mxPoint x="450" y="350" as="sourcePoint" />
            <mxPoint x="600" y="240" as="targetPoint" />
            <Array as="points">
              <mxPoint x="600" y="350" />
            </Array>
          </mxGeometry>
        </mxCell>
        <mxCell id="etK-Mo9oTX_UjSKc1ZKT-61" value="" style="endArrow=classic;html=1;rounded=0;" edge="1" parent="1">
          <mxGeometry width="50" height="50" relative="1" as="geometry">
            <mxPoint x="630" y="240" as="sourcePoint" />
            <mxPoint x="450" y="370" as="targetPoint" />
            <Array as="points">
              <mxPoint x="630" y="370" />
            </Array>
          </mxGeometry>
        </mxCell>
        <mxCell id="etK-Mo9oTX_UjSKc1ZKT-62" value="Reply" style="text;html=1;align=center;verticalAlign=middle;resizable=0;points=[];autosize=1;strokeColor=none;fillColor=none;" vertex="1" parent="1">
          <mxGeometry x="520" y="364" width="50" height="30" as="geometry" />
        </mxCell>
        <mxCell id="etK-Mo9oTX_UjSKc1ZKT-63" value="Update data" style="text;html=1;align=center;verticalAlign=middle;resizable=0;points=[];autosize=1;strokeColor=none;fillColor=none;" vertex="1" parent="1">
          <mxGeometry x="474" y="326" width="90" height="30" as="geometry" />
        </mxCell>
        <mxCell id="etK-Mo9oTX_UjSKc1ZKT-64" value="" style="swimlane;startSize=0;" vertex="1" parent="1">
          <mxGeometry x="40" y="40" width="680" height="390" as="geometry" />
        </mxCell>
      </root>
    </mxGraphModel>
  </diagram>
</mxfile>
